<?xml version="1.0" standalone="no"?>
<!DOCTYPE svg PUBLIC "-//W3C//DTD SVG 20010904//EN"
 "http://www.w3.org/TR/2001/REC-SVG-20010904/DTD/svg10.dtd">
<svg version="1.0" xmlns="http://www.w3.org/2000/svg"
 width="987.000000pt" height="801.000000pt" viewBox="0 0 987.000000 801.000000"
 preserveAspectRatio="xMidYMid meet">

<g transform="translate(0.000000,801.000000) scale(0.100000,-0.100000)"
fill="#000000" stroke="none">
<path d="M4757 7720 c-77 -14 -152 -56 -221 -125 -102 -102 -136 -198 -136
-387 l0 -88 -42 -1 c-24 0 -100 -1 -170 -2 -156 -2 -161 -5 -236 -143 -122
-223 -243 -358 -429 -476 -35 -22 -63 -44 -63 -50 0 -24 45 -88 69 -98 18 -7
411 -10 1316 -8 1280 3 1290 3 1325 23 28 17 36 28 38 57 4 43 -12 60 -106
115 -136 79 -302 271 -412 476 -23 43 -53 85 -66 93 -18 13 -52 15 -177 12
-86 -2 -159 1 -164 5 -4 5 -9 50 -10 100 -5 177 -39 264 -144 370 -103 103
-242 151 -372 127z m130 -245 c89 -26 141 -112 127 -207 -9 -57 -70 -118 -136
-135 -26 -7 -53 -11 -60 -9 -7 3 -25 7 -40 10 -14 3 -40 18 -58 32 -58 50 -77
116 -54 192 20 69 51 102 109 117 64 17 53 17 112 0z"/>
<path d="M2684 6961 c-31 -14 -47 -30 -63 -64 -22 -45 -22 -51 -19 -457 l3
-411 46 -44 c43 -41 50 -43 123 -50 80 -8 96 -4 78 17 -13 17 -15 68 -13 445
1 269 3 314 17 327 13 14 60 16 362 16 410 0 400 -2 470 105 50 75 49 99 -4
121 -27 11 -120 14 -496 14 -430 0 -466 -2 -504 -19z"/>
<path d="M5993 6965 c-18 -12 -23 -26 -23 -57 0 -36 7 -47 65 -107 l64 -66
339 3 c313 2 341 1 360 -15 20 -18 21 -21 24 -929 3 -753 6 -915 17 -928 12
-14 31 -16 110 -14 92 3 95 4 102 28 4 14 8 394 9 845 1 451 5 840 8 865 5 30
12 45 22 45 15 0 35 -42 129 -280 32 -82 94 -231 136 -330 123 -286 363 -851
407 -955 l39 -95 -23 -15 c-62 -40 -122 -108 -149 -167 l-28 -63 -610 0 -610
0 -34 74 c-40 85 -94 144 -169 183 -46 24 -65 27 -143 28 -74 0 -98 -4 -137
-23 -92 -46 -158 -120 -197 -224 l-11 -28 -388 0 c-214 0 -410 3 -435 6 -42 6
-46 9 -52 40 -4 23 -25 54 -64 93 -47 48 -68 63 -116 76 -102 30 -189 7 -269
-72 -95 -93 -100 -241 -12 -354 61 -78 115 -102 215 -98 65 3 85 9 126 34 56
34 113 104 122 147 l6 29 356 -3 c196 -1 390 -4 432 -6 l76 -3 16 -53 c32
-100 98 -168 204 -212 l58 -23 0 -402 0 -403 -67 -34 c-75 -38 -120 -86 -148
-160 l-18 -47 -451 -3 -452 -2 -19 45 c-48 112 -133 175 -235 175 -88 0 -128
-15 -189 -71 -68 -62 -91 -121 -84 -213 6 -73 34 -131 83 -174 133 -118 330
-79 416 81 l32 60 75 -7 c41 -3 243 -6 448 -6 l374 0 22 -47 c31 -67 102 -134
163 -156 126 -44 243 -3 324 114 l36 52 85 -2 c81 -2 278 -19 475 -41 50 -6
189 -19 310 -31 351 -32 464 -44 468 -49 2 -3 7 -32 10 -65 6 -55 4 -61 -16
-71 -12 -6 -76 -38 -142 -71 -162 -83 -352 -172 -399 -189 -21 -8 -56 -14 -77
-14 l-39 0 0 44 c0 49 15 67 33 41 11 -15 16 -13 50 20 l37 36 0 99 c0 93 -2
100 -22 112 -28 15 -183 17 -198 2 -7 -7 -11 -155 -13 -441 -1 -237 -4 -434
-7 -437 -3 -2 -711 -6 -1573 -8 -1332 -3 -1570 -6 -1577 -18 -8 -13 -16 -53
-35 -177 l-7 -43 1644 0 c1576 0 1645 1 1683 19 46 21 79 54 94 94 7 17 11
127 11 282 l0 254 33 25 c17 13 162 86 320 162 242 116 291 136 305 126 46
-33 90 -46 157 -46 80 0 140 22 197 73 l36 31 29 -23 c38 -31 118 -87 340
-237 l185 -125 2 -76 c1 -66 6 -83 32 -125 78 -127 268 -142 362 -28 63 76 67
199 9 277 -63 83 -186 112 -286 67 -24 -11 -49 -20 -55 -20 -12 0 -260 163
-426 279 -41 29 -89 62 -106 74 -31 21 -32 23 -36 112 -3 66 -10 101 -25 130
-32 60 -89 113 -144 132 l-49 18 0 556 0 555 53 24 c102 46 177 155 177 256 0
126 -125 273 -235 274 -44 0 -50 8 -78 85 -27 77 -127 319 -259 630 -192 450
-322 764 -423 1024 -67 170 -74 182 -134 224 l-46 32 -495 3 c-439 2 -498 1
-517 -13z m1632 -2369 c11 -14 33 -43 48 -66 22 -32 45 -50 103 -76 l74 -35 0
-548 0 -548 -64 -32 c-64 -31 -116 -81 -148 -139 -17 -32 -18 -32 -75 -27 -82
8 -212 21 -488 50 -132 14 -287 29 -345 35 -232 22 -390 40 -414 46 -20 5 -29
17 -43 62 -20 64 -83 140 -146 174 -25 14 -44 33 -48 48 -9 32 -11 677 -3 748
6 46 10 53 33 58 44 8 126 53 161 87 40 39 78 97 94 146 l13 36 154 5 c85 3
361 5 614 3 l460 -2 20 -25z"/>
<path d="M6836 4502 c-8 -14 -17 -1146 -9 -1158 12 -16 205 -45 220 -32 10 8
13 137 13 598 0 527 -2 588 -16 594 -24 9 -202 7 -208 -2z"/>
<path d="M4764 6020 c-91 -51 -143 -162 -124 -260 5 -25 9 -49 10 -53 0 -12
-146 -79 -302 -138 -157 -60 -378 -139 -387 -139 -4 0 -15 23 -26 51 -41 107
-148 186 -264 196 -112 10 -235 -64 -282 -170 -32 -73 -33 -194 0 -255 34 -66
100 -126 162 -150 l54 -20 3 -335 2 -335 -42 -25 c-109 -64 -149 -157 -117
-272 11 -38 70 -105 127 -145 21 -14 22 -23 23 -180 1 -91 1 -260 0 -376 l-1
-211 -63 -31 c-170 -84 -209 -288 -80 -414 26 -25 67 -56 91 -68 38 -19 43
-24 38 -48 -37 -188 -139 -653 -190 -867 -24 -99 -58 -243 -76 -320 -17 -77
-35 -147 -40 -155 -4 -9 -11 -43 -15 -77 l-7 -61 -51 -4 c-52 -5 -99 -22 -150
-55 -19 -12 -31 -15 -41 -8 -8 6 -88 62 -178 125 -90 63 -190 133 -223 155
-126 85 -332 235 -350 255 -13 14 -18 37 -19 82 -2 115 -76 199 -190 218 -127
21 -224 -47 -250 -172 -22 -108 13 -192 101 -249 39 -24 57 -29 109 -29 54 0
68 4 114 35 29 19 56 35 60 35 5 0 57 -37 117 -81 130 -99 183 -137 289 -209
145 -98 359 -253 372 -269 8 -10 11 -28 7 -49 -14 -75 45 -187 125 -237 86
-54 208 -38 284 39 99 99 97 244 -5 346 l-32 31 66 267 c59 236 99 412 243
1072 20 91 40 175 45 187 4 12 28 32 51 44 67 33 105 66 133 113 76 130 18
306 -123 369 l-59 27 2 377 c2 208 3 381 4 386 0 4 8 7 17 7 18 0 70 35 97 65
65 73 74 200 21 276 -16 23 -51 54 -81 71 l-53 30 2 336 3 335 36 13 c88 30
176 118 196 193 8 32 14 36 88 62 292 100 441 156 554 207 l130 59 52 -26 c40
-19 68 -25 113 -25 77 0 129 26 187 93 l44 50 225 -29 c124 -15 258 -31 298
-35 82 -8 86 -12 95 -92 13 -111 91 -219 196 -270 49 -24 68 -27 151 -28 84 0
101 3 152 28 80 39 151 106 179 169 19 44 23 70 23 153 1 87 -3 107 -25 155
-55 117 -164 189 -296 198 -145 9 -258 -44 -329 -157 -32 -49 -44 -61 -65 -61
-36 0 -579 69 -589 75 -4 2 -10 22 -14 42 -9 56 -71 132 -135 165 -75 39 -147
39 -217 -2z"/>
<path d="M2253 5959 c-97 -48 -155 -160 -135 -261 5 -29 8 -56 5 -61 -4 -6
-116 -94 -298 -232 -94 -71 -442 -340 -528 -408 -125 -98 -117 -96 -168 -59
-136 96 -337 75 -460 -48 -66 -65 -92 -112 -109 -195 -25 -122 9 -242 96 -335
67 -72 135 -102 246 -109 l89 -6 38 -115 c21 -63 55 -160 76 -215 37 -102 137
-379 225 -627 l48 -136 -35 -34 c-71 -68 -91 -154 -58 -249 37 -104 158 -168
262 -140 107 29 179 132 168 241 -11 105 -91 187 -194 199 l-45 6 -52 150
c-29 83 -105 296 -169 475 -64 179 -128 360 -142 404 -25 76 -25 79 -7 89 44
24 134 122 163 177 31 58 32 59 69 53 49 -7 258 -44 507 -88 302 -54 593 -102
660 -110 33 -3 68 -8 78 -11 16 -5 17 -32 17 -393 0 -213 -3 -390 -6 -394 -3
-3 -25 5 -47 18 -23 13 -121 68 -217 122 l-175 99 3 42 c8 103 -88 208 -192
211 -106 3 -206 -98 -206 -209 0 -14 11 -48 24 -76 33 -70 96 -108 181 -109
51 0 66 4 97 28 l37 28 133 -74 c73 -41 185 -104 248 -140 l115 -64 5 -731 c5
-718 5 -731 26 -758 11 -15 33 -37 48 -48 26 -20 43 -21 319 -24 267 -3 293
-1 304 14 18 24 18 213 1 216 -7 1 -114 2 -238 2 l-224 1 -1 1635 0 1635 -109
-2 c-77 -1 -112 -6 -117 -15 -5 -7 -9 -214 -9 -460 l0 -448 -38 0 c-39 0 -253
34 -567 90 -93 17 -244 44 -335 60 -91 16 -205 38 -255 48 l-89 19 -29 79
c-16 43 -31 86 -34 95 -6 22 30 51 658 525 l280 211 38 -19 c172 -85 361 34
361 226 0 84 -65 178 -146 212 -50 21 -141 18 -191 -7z"/>
<path d="M8725 5200 c-120 -37 -182 -199 -123 -318 82 -162 310 -169 398 -12
37 66 36 167 -3 233 -41 70 -94 101 -176 104 -36 1 -79 -2 -96 -7z"/>
<path d="M8800 4079 c-57 -10 -88 -26 -126 -64 -43 -43 -62 -85 -70 -159 -6
-50 -3 -63 24 -118 48 -96 114 -138 216 -138 135 1 236 104 236 242 0 95 -44
169 -125 211 -48 25 -108 35 -155 26z"/>
</g>
</svg>
